<svg width="241" height="312" viewBox="0 0 241 312" fill="none" xmlns="http://www.w3.org/2000/svg">
<g filter="url(#filter0_d_908_23)">
<path d="M29.559 248V68.8H48.503V248H29.559ZM141.625 248V85.184H78.649V68.8H223.545V85.184H160.569V248H141.625Z" fill="black"/>
</g>
<g filter="url(#filter1_d_908_23)">
<path d="M42.559 248V68.8H61.503V248H42.559ZM154.625 248V85.184H91.649V68.8H236.545V85.184H173.569V248H154.625Z" fill="black" fill-opacity="0.5" shape-rendering="crispEdges"/>
</g>
<path d="M84.3864 100.075C84.3456 100.102 82.728 100.224 80.7977 100.347C74.436 100.727 74.3137 100.754 71.4183 102.167C65.5731 105.033 60.1901 110.167 57.2811 115.668C56.0441 118.018 53.8963 123.872 52.9991 127.363C51.4223 133.543 51.0009 140.144 51.8437 145.781C52.1155 147.574 52.8224 149.53 54.7119 153.754C57.0772 159.065 58.3142 161.102 61.2775 164.661C63.8059 167.703 64.6895 168.613 65.8313 169.347C69.5967 171.764 74.1777 174.44 75.7002 175.092C78.6364 176.369 81.3959 177.442 83.6524 178.175C87.2275 179.344 91.3327 181.286 96.5662 184.288C99.9509 186.23 101.324 187.167 103.037 188.729C105.524 191.011 106.748 192.668 107.631 195.018C108.542 197.395 109.983 202.325 109.915 202.746C109.874 202.977 109.67 204.105 109.48 205.259C108.732 209.646 107.414 213.993 106.639 214.631C106.353 214.862 105.252 214.699 98.0614 213.287C95.4515 212.77 92.2298 212.2 90.9249 212.01C89.6199 211.82 87.9615 211.534 87.2546 211.385C85.1884 210.964 79.8054 210.516 74.2729 210.312C70.657 210.176 62.6233 210.339 61.631 210.57C61.2639 210.652 60.4347 210.95 59.7959 211.249C59.157 211.534 57.852 212.091 56.8733 212.458C53.9235 213.613 51.667 215.134 49.9406 217.185C47.6977 219.847 46.148 222.469 45.713 224.37C45.5091 225.226 45.4683 226.027 45.4548 228.363C45.4548 231.569 45.5363 232.085 46.3519 233.688C46.8141 234.611 47.0044 235.603 46.7597 235.888C46.6646 235.997 46.3927 236.146 46.1616 236.214C44.5304 236.703 42.3826 237.382 41.9884 237.559C41.3223 237.831 40.9145 237.64 39.963 236.676C37.8016 234.462 36.252 231.759 35.4364 228.771C35.1645 227.752 35.1237 227.304 35.1237 224.968C35.1237 220.961 35.45 219.657 37.6657 214.917C39.963 210.013 44.3537 201.171 45.1013 199.921C45.8082 198.726 46.7461 196.227 47.0724 194.61C47.5481 192.288 47.4666 189.748 46.8141 187.615C46.651 187.058 46.3519 186.04 46.148 185.374C45.4683 183.065 44.5984 181.748 43.9051 181.979C43.5109 182.101 43.5381 182.671 43.9731 183.88C44.5032 185.347 44.544 186.597 44.0954 188.091C43.8915 188.756 43.5517 189.952 43.3478 190.739C42.3554 194.434 41.5942 196.009 39.9358 197.762C38.5221 199.256 36.7549 201.497 35.7626 203.005C35.382 203.589 34.879 204.281 34.6616 204.526C34.4576 204.77 33.9547 205.544 33.5605 206.237C33.1663 206.944 32.5546 207.826 32.2011 208.22C31.3583 209.13 30.6515 210.217 30.0806 211.439C29.5096 212.703 27.1987 219.548 26.4919 222.102C26.0161 223.813 25.7986 224.873 25.1325 228.513C24.9558 229.464 24.9558 230.238 25.1325 230.971C25.2821 231.65 25.8666 235.155 26.22 237.613C26.7502 241.213 27.7017 245.002 28.4765 246.646C28.9115 247.556 29.999 248.982 30.733 249.607C31.0593 249.878 31.6846 250.394 32.1332 250.775C34.5936 252.812 39.6639 255.081 42.369 255.339C43.5653 255.447 44.2721 255.773 45.1557 256.588C45.9985 257.376 48.187 258.761 50.1445 259.739C50.9193 260.133 51.9932 260.744 52.5234 261.098C53.8555 261.994 58.4637 264.344 60.3396 265.077C61.196 265.417 62.4874 265.865 63.1942 266.069C63.9011 266.259 65.777 266.843 67.3402 267.346C73.702 269.383 75.8089 269.913 78.7179 270.198C79.4928 270.266 81.0016 270.415 82.0891 270.524C83.1766 270.633 85.4059 270.796 87.0507 270.877C88.6955 270.959 90.9385 271.081 92.0531 271.149C94.6631 271.325 99.1489 271.325 101.12 271.149C101.976 271.067 104.518 270.945 106.761 270.877C109.004 270.809 111.573 270.66 112.471 270.538C118.18 269.763 131.787 266.843 138.434 264.942C139.834 264.548 142.145 263.488 144.687 262.062C147.052 260.731 148.656 259.617 149.499 258.707C150.301 257.851 150.043 257.797 152.15 259.169C153.781 260.228 156.092 261.356 157.601 261.831C159.001 262.279 160.061 262.497 162.943 262.918C164.248 263.121 166.124 263.461 167.13 263.678C170.324 264.398 172.159 264.643 174.661 264.724C178.535 264.846 186.052 264.357 188.594 263.814C190.905 263.312 193.488 261.668 194.901 259.767C196.478 257.675 197.81 254.659 198.381 251.929C199.061 248.71 199.129 247.909 198.843 246.537C198.408 244.364 198.245 243.807 197.701 242.693C197.28 241.824 196.845 241.172 196.206 240.479C195.119 239.311 193.229 238.007 192.033 237.613C190.579 237.138 190.606 237.165 190.864 235.752C191.231 233.837 191.258 233.484 191.109 232.071C190.823 229.273 189.885 226.829 188.05 224.085C186.297 221.463 185.386 220.635 183.034 219.535C181.661 218.883 178.915 217.85 177.515 217.443C172.866 216.125 171.806 215.935 169.155 215.962C165.295 216.003 159.341 216.506 151.008 217.511C148.235 217.837 146.78 217.932 143.722 218C138.23 218.108 131.026 217.66 130.509 217.171C130.373 217.035 130.427 216.682 130.822 215.338C131.896 211.575 132.167 209.511 132.072 205.612C132.018 203.059 131.936 202.19 131.515 199.568C130.944 196.023 130.686 194.936 130.006 193.252C128.076 188.457 124.202 183.16 118.737 177.89C114.265 173.544 111.505 171.561 105.674 168.423C102.955 166.97 94.3232 163.425 89.4296 161.74C87.4993 161.088 86.6837 160.694 85.2836 159.798C82.9591 158.318 79.2481 155.261 76.7741 152.817C75.6594 151.703 75.3875 151.35 74.8438 150.249C73.6068 147.696 72.3562 143.485 71.962 140.511C71.459 136.707 72.0436 131.818 73.5388 127.268C74.9254 123.043 76.8285 120.68 80.0909 119.159C82.0619 118.235 82.5785 118.167 86.8332 118.262C89.7286 118.33 90.653 118.398 90.9657 118.547C91.1967 118.656 91.5774 118.751 91.822 118.751C93.6843 118.751 99.7742 123.763 106.285 130.663C107.346 131.777 107.577 131.954 109.072 132.701C110.717 133.529 112.403 134.235 117.024 135.974C122.176 137.93 123.359 138.066 124.419 136.816C124.609 136.572 124.773 136.286 124.773 136.178C124.773 135.743 123.658 134.928 121.646 133.896C117.976 132.008 116.725 130.745 113.735 125.814C112.566 123.885 111.179 121.155 110.676 119.783C110.554 119.457 110.459 118.724 110.459 118.031C110.445 116.999 110.472 116.809 110.731 116.564C111.002 116.293 111.057 116.279 111.75 116.442C113.137 116.768 116.562 118.113 118.316 119.023C119.294 119.539 120.912 120.245 121.918 120.585C124.147 121.359 124.637 121.604 125.099 122.147C125.575 122.717 125.561 123.329 125.031 125.135C124.487 127.023 124.378 127.852 124.691 127.852C125.384 127.852 126.39 126.493 127.491 124.048C127.872 123.193 128.239 122.418 128.32 122.337C128.538 122.079 130.74 121.726 131.841 121.767L132.861 121.807L132.901 122.256C132.929 122.5 132.82 123.084 132.684 123.546C132.086 125.407 131.896 127.105 132.303 126.955C132.575 126.846 133.418 125.597 134.356 123.913C135.77 121.373 136.069 121.06 137.51 120.571C138.964 120.082 140.432 119.009 141.03 117.991C141.574 117.053 141.669 116.456 141.438 115.152C141.126 113.4 140.894 113.155 139.209 112.911C137.292 112.639 133.201 111.104 131.569 110.045C130.264 109.203 129.435 108.822 125.248 107.165C118.316 104.408 117.174 104.191 110.744 104.489C106.394 104.693 105.212 104.598 102.52 103.865C99.5703 103.05 96.0904 102.221 94.6631 101.99C93.9154 101.854 92.6376 101.61 91.8084 101.433C90.9928 101.257 89.4296 100.944 88.3421 100.754C87.2546 100.55 86.1943 100.306 85.9769 100.197C85.6098 100.021 84.5224 99.9256 84.3864 100.075Z" fill="black"/>
<defs>
<filter id="filter0_d_908_23" x="25.5586" y="68.8008" width="201.988" height="187.199" filterUnits="userSpaceOnUse" color-interpolation-filters="sRGB">
<feFlood flood-opacity="0" result="BackgroundImageFix"/>
<feColorMatrix in="SourceAlpha" type="matrix" values="0 0 0 0 0 0 0 0 0 0 0 0 0 0 0 0 0 0 127 0" result="hardAlpha"/>
<feOffset dy="4"/>
<feGaussianBlur stdDeviation="2"/>
<feComposite in2="hardAlpha" operator="out"/>
<feColorMatrix type="matrix" values="0 0 0 0 0 0 0 0 0 0 0 0 0 0 0 0 0 0 0.25 0"/>
<feBlend mode="normal" in2="BackgroundImageFix" result="effect1_dropShadow_908_23"/>
<feBlend mode="normal" in="SourceGraphic" in2="effect1_dropShadow_908_23" result="shape"/>
</filter>
<filter id="filter1_d_908_23" x="38.5586" y="68.8008" width="201.988" height="187.199" filterUnits="userSpaceOnUse" color-interpolation-filters="sRGB">
<feFlood flood-opacity="0" result="BackgroundImageFix"/>
<feColorMatrix in="SourceAlpha" type="matrix" values="0 0 0 0 0 0 0 0 0 0 0 0 0 0 0 0 0 0 127 0" result="hardAlpha"/>
<feOffset dy="4"/>
<feGaussianBlur stdDeviation="2"/>
<feComposite in2="hardAlpha" operator="out"/>
<feColorMatrix type="matrix" values="0 0 0 0 0 0 0 0 0 0 0 0 0 0 0 0 0 0 0.25 0"/>
<feBlend mode="normal" in2="BackgroundImageFix" result="effect1_dropShadow_908_23"/>
<feBlend mode="normal" in="SourceGraphic" in2="effect1_dropShadow_908_23" result="shape"/>
</filter>
</defs>
</svg>
