<svg width="232" height="312" viewBox="0 0 232 312" fill="none" xmlns="http://www.w3.org/2000/svg">
<g filter="url(#filter0_d_908_23)">
<path d="M29.559 248V68.8H48.503V248H29.559ZM141.625 248V85.184H78.649V68.8H223.545V85.184H160.569V248H141.625Z" fill="white"/>
</g>
<path d="M36.559 248V68.8H55.503V248H36.559ZM148.625 248V85.184H85.649V68.8H230.545V85.184H167.569V248H148.625Z" fill="white" fill-opacity="0.5"/>
<path d="M78.3864 100.075C78.3456 100.102 76.728 100.224 74.7977 100.347C68.436 100.727 68.3137 100.754 65.4183 102.167C59.5731 105.033 54.1901 110.167 51.2811 115.668C50.0441 118.018 47.8963 123.872 46.9991 127.363C45.4223 133.543 45.0009 140.144 45.8437 145.781C46.1155 147.574 46.8224 149.53 48.7119 153.754C51.0772 159.065 52.3142 161.102 55.2775 164.661C57.8059 167.703 58.6895 168.613 59.8313 169.347C63.5967 171.764 68.1777 174.44 69.7002 175.092C72.6364 176.369 75.3959 177.442 77.6524 178.175C81.2275 179.344 85.3327 181.286 90.5662 184.288C93.9509 186.23 95.3239 187.167 97.0366 188.729C99.5242 191.011 100.748 192.668 101.631 195.018C102.542 197.395 103.983 202.325 103.915 202.746C103.874 202.977 103.67 204.105 103.48 205.259C102.732 209.646 101.414 213.993 100.639 214.631C100.353 214.862 99.2524 214.699 92.0614 213.287C89.4515 212.77 86.2298 212.2 84.9249 212.01C83.6199 211.82 81.9615 211.534 81.2546 211.385C79.1884 210.964 73.8054 210.516 68.2729 210.312C64.657 210.176 56.6233 210.339 55.631 210.57C55.2639 210.652 54.4347 210.95 53.7959 211.249C53.157 211.534 51.852 212.091 50.8733 212.458C47.9235 213.613 45.667 215.134 43.9406 217.185C41.6977 219.847 40.148 222.469 39.713 224.37C39.5091 225.226 39.4683 226.027 39.4548 228.363C39.4548 231.569 39.5363 232.085 40.3519 233.688C40.8141 234.611 41.0044 235.603 40.7597 235.888C40.6646 235.997 40.3927 236.146 40.1616 236.214C38.5304 236.703 36.3826 237.382 35.9884 237.559C35.3223 237.831 34.9145 237.64 33.963 236.676C31.8016 234.462 30.252 231.759 29.4364 228.771C29.1645 227.752 29.1237 227.304 29.1237 224.968C29.1237 220.961 29.45 219.657 31.6657 214.917C33.963 210.013 38.3537 201.171 39.1013 199.921C39.8082 198.726 40.7461 196.227 41.0724 194.61C41.5481 192.288 41.4666 189.748 40.8141 187.615C40.651 187.058 40.3519 186.04 40.148 185.374C39.4683 183.065 38.5984 181.748 37.9051 181.979C37.5109 182.101 37.5381 182.671 37.9731 183.88C38.5032 185.347 38.544 186.597 38.0954 188.091C37.8915 188.756 37.5517 189.952 37.3478 190.739C36.3554 194.434 35.5942 196.009 33.9358 197.762C32.5221 199.256 30.7549 201.497 29.7626 203.005C29.382 203.589 28.879 204.281 28.6616 204.526C28.4576 204.77 27.9547 205.544 27.5605 206.237C27.1663 206.944 26.5546 207.826 26.2011 208.22C25.3583 209.13 24.6515 210.217 24.0806 211.439C23.5096 212.703 21.1987 219.548 20.4919 222.102C20.0161 223.813 19.7986 224.873 19.1325 228.513C18.9558 229.464 18.9558 230.238 19.1325 230.971C19.2821 231.65 19.8666 235.155 20.22 237.613C20.7502 241.213 21.7017 245.002 22.4765 246.646C22.9115 247.556 23.999 248.982 24.733 249.607C25.0593 249.878 25.6846 250.394 26.1332 250.775C28.5936 252.812 33.6639 255.081 36.369 255.339C37.5653 255.447 38.2721 255.773 39.1557 256.588C39.9985 257.376 42.187 258.761 44.1445 259.739C44.9193 260.133 45.9932 260.744 46.5234 261.098C47.8555 261.994 52.4637 264.344 54.3396 265.077C55.196 265.417 56.4874 265.865 57.1942 266.069C57.9011 266.259 59.777 266.843 61.3402 267.346C67.702 269.383 69.8089 269.913 72.7179 270.198C73.4928 270.266 75.0016 270.415 76.0891 270.524C77.1766 270.633 79.4059 270.796 81.0507 270.877C82.6955 270.959 84.9385 271.081 86.0531 271.149C88.6631 271.325 93.1489 271.325 95.12 271.149C95.9764 271.067 98.5183 270.945 100.761 270.877C103.004 270.809 105.573 270.66 106.471 270.538C112.18 269.763 125.787 266.843 132.434 264.942C133.834 264.548 136.145 263.488 138.687 262.062C141.052 260.731 142.656 259.617 143.499 258.707C144.301 257.851 144.043 257.797 146.15 259.169C147.781 260.228 150.092 261.356 151.601 261.831C153.001 262.279 154.061 262.497 156.943 262.918C158.248 263.121 160.124 263.461 161.13 263.678C164.324 264.398 166.159 264.643 168.661 264.724C172.535 264.846 180.052 264.357 182.594 263.814C184.905 263.312 187.488 261.668 188.901 259.767C190.478 257.675 191.81 254.659 192.381 251.929C193.061 248.71 193.129 247.909 192.843 246.537C192.408 244.364 192.245 243.807 191.701 242.693C191.28 241.824 190.845 241.172 190.206 240.479C189.119 239.311 187.229 238.007 186.033 237.613C184.579 237.138 184.606 237.165 184.864 235.752C185.231 233.837 185.258 233.484 185.109 232.071C184.823 229.273 183.885 226.829 182.05 224.085C180.297 221.463 179.386 220.635 177.034 219.535C175.661 218.883 172.915 217.85 171.515 217.443C166.866 216.125 165.806 215.935 163.155 215.962C159.295 216.003 153.341 216.506 145.008 217.511C142.235 217.837 140.78 217.932 137.722 218C132.23 218.108 125.026 217.66 124.509 217.171C124.373 217.035 124.427 216.682 124.822 215.338C125.896 211.575 126.167 209.511 126.072 205.612C126.018 203.059 125.936 202.19 125.515 199.568C124.944 196.023 124.686 194.936 124.006 193.252C122.076 188.457 118.202 183.16 112.737 177.89C108.265 173.544 105.505 171.561 99.6738 168.423C96.9551 166.97 88.3232 163.425 83.4296 161.74C81.4993 161.088 80.6837 160.694 79.2836 159.798C76.9591 158.318 73.2481 155.261 70.7741 152.817C69.6594 151.703 69.3875 151.35 68.8438 150.249C67.6068 147.696 66.3562 143.485 65.962 140.511C65.459 136.707 66.0436 131.818 67.5388 127.268C68.9254 123.043 70.8285 120.68 74.0909 119.159C76.0619 118.235 76.5785 118.167 80.8332 118.262C83.7286 118.33 84.653 118.398 84.9657 118.547C85.1967 118.656 85.5774 118.751 85.822 118.751C87.6843 118.751 93.7742 123.763 100.285 130.663C101.346 131.777 101.577 131.954 103.072 132.701C104.717 133.529 106.403 134.235 111.024 135.974C116.176 137.93 117.359 138.066 118.419 136.816C118.609 136.572 118.773 136.286 118.773 136.178C118.773 135.743 117.658 134.928 115.646 133.896C111.976 132.008 110.725 130.745 107.735 125.814C106.566 123.885 105.179 121.155 104.676 119.783C104.554 119.457 104.459 118.724 104.459 118.031C104.445 116.999 104.472 116.809 104.731 116.564C105.002 116.293 105.057 116.279 105.75 116.442C107.137 116.768 110.562 118.113 112.316 119.023C113.294 119.539 114.912 120.245 115.918 120.585C118.147 121.359 118.637 121.604 119.099 122.147C119.575 122.717 119.561 123.329 119.031 125.135C118.487 127.023 118.378 127.852 118.691 127.852C119.384 127.852 120.39 126.493 121.491 124.048C121.872 123.193 122.239 122.418 122.32 122.337C122.538 122.079 124.74 121.726 125.841 121.767L126.861 121.807L126.901 122.256C126.929 122.5 126.82 123.084 126.684 123.546C126.086 125.407 125.896 127.105 126.303 126.955C126.575 126.846 127.418 125.597 128.356 123.913C129.77 121.373 130.069 121.06 131.51 120.571C132.964 120.082 134.432 119.009 135.03 117.991C135.574 117.053 135.669 116.456 135.438 115.152C135.126 113.4 134.894 113.155 133.209 112.911C131.292 112.639 127.201 111.104 125.569 110.045C124.264 109.203 123.435 108.822 119.248 107.165C112.316 104.408 111.174 104.191 104.744 104.489C100.394 104.693 99.2116 104.598 96.5201 103.865C93.5703 103.05 90.0904 102.221 88.6631 101.99C87.9154 101.854 86.6376 101.61 85.8084 101.433C84.9928 101.257 83.4296 100.944 82.3421 100.754C81.2546 100.55 80.1943 100.306 79.9769 100.197C79.6098 100.021 78.5224 99.9256 78.3864 100.075Z" fill="white"/>
<defs>
<filter id="filter0_d_908_23" x="25.5586" y="68.8008" width="201.988" height="187.199" filterUnits="userSpaceOnUse" color-interpolation-filters="sRGB">
<feFlood flood-opacity="0" result="BackgroundImageFix"/>
<feColorMatrix in="SourceAlpha" type="matrix" values="0 0 0 0 0 0 0 0 0 0 0 0 0 0 0 0 0 0 127 0" result="hardAlpha"/>
<feOffset dy="4"/>
<feGaussianBlur stdDeviation="2"/>
<feComposite in2="hardAlpha" operator="out"/>
<feColorMatrix type="matrix" values="0 0 0 0 0 0 0 0 0 0 0 0 0 0 0 0 0 0 0.25 0"/>
<feBlend mode="normal" in2="BackgroundImageFix" result="effect1_dropShadow_908_23"/>
<feBlend mode="normal" in="SourceGraphic" in2="effect1_dropShadow_908_23" result="shape"/>
</filter>
</defs>
</svg>
